<svg data-v-423bf9ae="" xmlns="http://www.w3.org/2000/svg" viewBox="0 0 659 126" class="iconLeftSlogan"><!----><!----><!----><g data-v-423bf9ae="" id="965d44f5-61c2-44da-87f8-995f5c72ea36" fill="white" transform="matrix(5.970149706951518,0,0,5.970149706951518,136.4870737678716,-21.970151558550654)"><path d="M1.50 4.36L1.50 13.52L2.73 13.52L2.73 9.94C3.21 10.16 4.01 10.39 4.95 10.39C6.84 10.39 8.34 9.06 8.34 7.45C8.34 5.56 6.73 4.36 5.15 4.36ZM4.91 9.23C4.09 9.23 3.23 9.02 2.73 8.82L2.73 5.52L4.81 5.52C5.99 5.52 7.08 6.29 7.08 7.45C7.08 8.48 6.29 9.23 4.91 9.23ZM16.15 9.87C16.15 8.00 15.11 6.55 13.00 6.55C11.07 6.55 9.71 8.20 9.71 10.14C9.71 12.09 11.20 13.73 13.28 13.73C14.34 13.73 15.05 13.26 15.33 12.99L15.33 11.85C14.88 12.18 14.26 12.63 13.28 12.63C11.96 12.63 11.06 11.69 10.90 10.54L16.15 10.54ZM10.92 9.58C11.12 8.50 11.88 7.64 13.00 7.64C13.96 7.64 14.90 8.26 15.04 9.58ZM24.17 13.52L24.17 3.68L23.05 3.68L23.05 7.60C22.46 6.95 21.59 6.55 20.81 6.55C18.94 6.55 17.51 7.96 17.51 10.21C17.51 12.29 18.94 13.73 20.70 13.73C21.74 13.73 22.57 13.08 23.05 12.36L23.05 13.52ZM21.01 7.67C21.85 7.67 22.46 8.07 23.04 8.78L23.05 10.09C23.06 11.55 22.12 12.63 20.88 12.63C19.55 12.63 18.68 11.54 18.68 10.21C18.68 8.89 19.55 7.67 21.01 7.67ZM29.72 6.55C28.94 6.55 28.14 7.15 27.62 8.05L27.62 6.69L26.50 6.69L26.50 13.52L27.62 13.52L27.62 9.39C28.12 8.48 28.63 7.72 29.56 7.72C29.91 7.72 30.27 7.86 30.56 8.08L30.56 6.74C30.31 6.62 30.04 6.55 29.72 6.55ZM35.08 6.55C33.00 6.55 31.51 8.20 31.51 10.14C31.51 12.09 33.00 13.73 35.08 13.73C37.16 13.73 38.65 12.09 38.65 10.14C38.65 8.20 37.16 6.55 35.08 6.55ZM35.08 7.64C36.54 7.64 37.49 8.82 37.49 10.14C37.49 11.47 36.54 12.63 35.08 12.63C33.62 12.63 32.68 11.47 32.68 10.14C32.68 8.82 33.62 7.64 35.08 7.64ZM52.58 13.52L52.58 4.36L51.35 4.36L51.35 10.99L45.43 4.36L44.94 4.36L44.94 13.52L46.17 13.52L46.17 6.97L52.09 13.52ZM61.21 9.87C61.21 8.00 60.17 6.55 58.06 6.55C56.14 6.55 54.77 8.20 54.77 10.14C54.77 12.09 56.26 13.73 58.34 13.73C59.40 13.73 60.12 13.26 60.39 12.99L60.39 11.85C59.94 12.18 59.32 12.63 58.34 12.63C57.03 12.63 56.12 11.69 55.96 10.54L61.21 10.54ZM55.99 9.58C56.18 8.50 56.94 7.64 58.06 7.64C59.02 7.64 59.96 8.26 60.10 9.58ZM65.09 6.55C63.63 6.55 62.69 7.41 62.69 8.57C62.69 9.35 62.93 9.98 64.00 10.38L65.01 10.75C65.65 10.98 65.99 11.20 65.99 11.63C65.99 12.21 65.46 12.63 64.60 12.63C63.92 12.63 62.96 12.21 62.58 11.92L62.58 13.13C62.89 13.36 63.88 13.73 64.68 13.73C66.14 13.73 67.20 12.80 67.20 11.63C67.20 10.86 66.76 10.25 65.87 9.94L64.72 9.53C64.09 9.31 63.89 8.91 63.89 8.57C63.89 8.13 64.31 7.64 65.17 7.64C65.86 7.64 66.58 7.98 66.96 8.27L66.96 7.07C66.65 6.84 65.90 6.55 65.09 6.55ZM70.79 6.69L70.79 4.72L70.27 4.72C69.82 6.07 69.25 7.01 68.36 7.41L68.36 7.74L69.67 7.74L69.67 11.80C69.67 12.96 70.27 13.73 71.44 13.73C72.12 13.73 72.47 13.54 72.84 13.25L72.84 12.33C72.57 12.50 72.23 12.66 71.68 12.66C71.08 12.66 70.79 12.32 70.79 11.74L70.79 7.74L72.79 7.74L72.79 6.69ZM77.92 6.55C75.84 6.55 74.35 8.20 74.35 10.14C74.35 12.09 75.84 13.73 77.92 13.73C79.99 13.73 81.48 12.09 81.48 10.14C81.48 8.20 79.99 6.55 77.92 6.55ZM77.92 7.64C79.38 7.64 80.32 8.82 80.32 10.14C80.32 11.47 79.38 12.63 77.92 12.63C76.45 12.63 75.51 11.47 75.51 10.14C75.51 8.82 76.45 7.64 77.92 7.64ZM86.56 6.55C85.78 6.55 84.97 7.15 84.45 8.05L84.45 6.69L83.33 6.69L83.33 13.52L84.45 13.52L84.45 9.39C84.96 8.48 85.46 7.72 86.39 7.72C86.75 7.72 87.10 7.86 87.39 8.08L87.39 6.74C87.14 6.62 86.87 6.55 86.56 6.55Z"></path></g><!----><g data-v-423bf9ae="" id="2e9ba8da-023a-4908-8690-27dbcce1633b" transform="matrix(1.180588870578342,0,0,1.180588870578342,0.2788563698180937,3.6935366171310875)" stroke="none" fill="white"><path d="M61.226 29.796h6.995L45.688 71.87h-8.092M70.12 36.685l.009-6.694 22.37 17.634c-.032 2.082.032 4.482 0 6.564L70.13 71.824l.018-6.755 18.361-14.133zM36.134 65.129l-.009 6.695-22.37-17.635c.032-2.082-.032-4.482 0-6.564l22.37-17.634-.018 6.755-18.361 14.132zm70.12 38.831V-2.293H0V103.96z"></path></g><!----><g data-v-423bf9ae="" id="3b486fa9-8fb3-4f7b-9894-1d2142ae068d" fill="white" transform="matrix(2.273069878507215,0,0,2.273069878507215,142.03268294155794,50.544028402730376)"><path d="M2.73 5.52L7.49 5.52L7.49 4.36L1.50 4.36L1.50 13.52L2.73 13.52L2.73 9.75L6.67 9.75L6.67 8.59L2.73 8.59ZM15.76 13.52L17.65 13.52L13.18 9.71C13.36 9.72 13.51 9.72 13.63 9.72C15.22 9.72 16.88 8.82 16.88 7.11C16.88 5.22 15.27 4.36 13.70 4.36L10.19 4.36L10.19 13.52L11.42 13.52L11.42 9.67ZM11.42 5.52L13.49 5.52C14.67 5.52 15.63 6.08 15.63 7.11C15.63 8.09 14.83 8.72 13.45 8.72C12.76 8.72 12.02 8.63 11.42 8.46ZM22.61 4.16C19.85 4.16 17.79 6.32 17.79 8.94C17.79 11.57 19.85 13.73 22.61 13.73C25.38 13.73 27.44 11.57 27.44 8.94C27.44 6.32 25.38 4.16 22.61 4.16ZM22.61 5.36C24.66 5.36 26.18 6.89 26.18 8.94C26.18 10.99 24.66 12.52 22.61 12.52C20.56 12.52 19.04 10.99 19.04 8.94C19.04 6.89 20.56 5.36 22.61 5.36ZM37.27 13.52L37.27 4.36L36.04 4.36L36.04 10.99L30.12 4.36L29.63 4.36L29.63 13.52L30.86 13.52L30.86 6.97L36.78 13.52ZM46.73 5.52L46.73 4.36L39.18 4.36L39.18 5.52L42.34 5.52L42.34 13.48L43.57 13.48L43.57 5.52ZM52.06 10.68L52.06 9.45L47.95 9.45L47.95 10.68ZM55.62 5.52L60.66 5.52L60.66 4.36L54.39 4.36L54.39 13.52L60.66 13.52L60.66 12.36L55.62 12.36L55.62 9.41L60.07 9.41L60.07 8.24L55.62 8.24ZM70.90 13.52L70.90 4.36L69.67 4.36L69.67 10.99L63.75 4.36L63.26 4.36L63.26 13.52L64.49 13.52L64.49 6.97L70.41 13.52ZM73.91 4.36L73.91 13.32C75.02 13.52 76.02 13.66 77.27 13.66C80.35 13.66 82.10 11.55 82.10 8.85C82.10 5.89 79.65 4.36 76.82 4.36ZM75.14 5.52L76.82 5.52C78.87 5.52 80.84 6.60 80.84 8.85C80.84 10.90 79.49 12.50 77.27 12.50C76.62 12.50 75.82 12.44 75.14 12.36ZM88.39 4.36L88.39 13.32C89.50 13.52 90.49 13.66 91.75 13.66C94.83 13.66 96.58 11.55 96.58 8.85C96.58 5.89 94.13 4.36 91.30 4.36ZM89.62 5.52L91.30 5.52C93.35 5.52 95.32 6.60 95.32 8.85C95.32 10.90 93.97 12.50 91.75 12.50C91.10 12.50 90.30 12.44 89.62 12.36ZM100.00 5.52L105.04 5.52L105.04 4.36L98.77 4.36L98.77 13.52L105.04 13.52L105.04 12.36L100.00 12.36L100.00 9.41L104.45 9.41L104.45 8.24L100.00 8.24ZM111.17 13.52L115.45 4.36L113.97 4.36L110.84 11.44L107.75 4.36L106.27 4.36L110.55 13.52ZM118.32 5.52L123.36 5.52L123.36 4.36L117.09 4.36L117.09 13.52L123.36 13.52L123.36 12.36L118.32 12.36L118.32 9.41L122.77 9.41L122.77 8.24L118.32 8.24ZM127.19 12.36L127.19 4.36L125.96 4.36L125.96 13.52L132.23 13.52L132.23 12.36ZM138.66 4.16C135.90 4.16 133.83 6.32 133.83 8.94C133.83 11.57 135.90 13.73 138.66 13.73C141.42 13.73 143.49 11.57 143.49 8.94C143.49 6.32 141.42 4.16 138.66 4.16ZM138.66 5.36C140.71 5.36 142.23 6.89 142.23 8.94C142.23 10.99 140.71 12.52 138.66 12.52C136.61 12.52 135.09 10.99 135.09 8.94C135.09 6.89 136.61 5.36 138.66 5.36ZM145.67 4.36L145.67 13.52L146.90 13.52L146.90 9.94C147.38 10.16 148.18 10.39 149.12 10.39C151.01 10.39 152.51 9.06 152.51 7.45C152.51 5.56 150.90 4.36 149.32 4.36ZM149.08 9.23C148.26 9.23 147.40 9.02 146.90 8.82L146.90 5.52L148.98 5.52C150.16 5.52 151.25 6.29 151.25 7.45C151.25 8.48 150.46 9.23 149.08 9.23ZM155.93 5.52L160.97 5.52L160.97 4.36L154.70 4.36L154.70 13.52L160.97 13.52L160.97 12.36L155.93 12.36L155.93 9.41L160.38 9.41L160.38 8.24L155.93 8.24ZM169.15 13.52L171.04 13.52L166.56 9.71C166.74 9.72 166.89 9.72 167.02 9.72C168.60 9.72 170.27 8.82 170.27 7.11C170.27 5.22 168.66 4.36 167.08 4.36L163.57 4.36L163.57 13.52L164.80 13.52L164.80 9.67ZM164.80 5.52L166.88 5.52C168.05 5.52 169.01 6.08 169.01 7.11C169.01 8.09 168.22 8.72 166.84 8.72C166.14 8.72 165.40 8.63 164.80 8.46ZM181.97 15.04L181.97 13.81L175.27 13.81L175.27 15.04Z"></path></g></svg>